<svg width="200" height="200" viewBox="0 0 200 200" fill="none" xmlns="http://www.w3.org/2000/svg">
<g clip-path="url(#clip0_914_180)">
<circle cx="100" cy="100" r="100" fill="#29FD2F"/>
<path d="M0.000172821 133C0.000172821 133 9.49993 75 10.4999 72.5C11.4999 70 49.4999 50.5 50.9999 50.5C52.4999 50.5 68.4999 56 70.4999 55.5C72.4999 55 79.4999 48 81.4999 48C83.4999 48 92.9999 87 96.4999 87C99.9999 87 137 45.5 141 45.5C145 45.5 171.5 72.5 177.5 72.5C183.5 72.5 200 42.9969 200 42.9969V199.997H0.000172821V133Z" fill="black" fill-opacity="0.7"/>
<path d="M0 69.1239C0 69.1239 15.811 64.7478 18.9055 69.1239C21.9999 73.5 37.107 126.288 39.3035 126.288C41.5 126.288 53.8708 121.753 63.5 121.5C74.6059 121.208 75.5846 126.288 91.5423 126.288C107.5 126.288 118 39 126.5 40C135 41 157 69.2478 163 69.1239C169 69 200 26 200 26V200H0V69.1239Z" fill="black" fill-opacity="0.8"/>
<path d="M37.9999 177C34.4999 166.5 31.4999 150.5 31.4999 150.5C56.642 152.672 68.8047 155.052 85.9999 162H114C127.251 155.592 139.013 153.059 168 150.5C168 150.5 165.5 168 162 177C158.5 186 162 221 162 221H37.9999C37.9999 221 41.4999 187.5 37.9999 177Z" fill="#29FD2F"/>
<path d="M76.9999 186C76.9999 186 77.4999 178 84.4999 178C91.4999 178 91.9999 186 91.9999 186C89.9999 187 88.9999 187.5 86.4999 187C87.9999 185 87.9999 180 84.4999 178.5C80.9999 180 81.4999 185 82.9999 187C80.4999 187.5 78.9999 187 76.9999 186Z" fill="#111111"/>
<path d="M108 186C108 186 108.5 178 115.5 178C122.5 178 123 186 123 186C121 187 120 187.5 117.5 187C119 185 119 180 115.5 178.5C112 180 112.5 185 114 187C111.5 187.5 110 187 108 186Z" fill="#111111"/>
<path d="M99.9876 193C99.9763 192.641 102.895 191.259 102.455 190.027C101.968 188.664 97.8292 188.651 97.5205 190.027C97.2354 191.298 100.003 192.641 99.9876 193Z" fill="black"/>
<path d="M200 26L199.595 25.708L200.5 24.4512V200.5H161.11C161.134 201.121 161.159 201.739 161.187 202.353C161.405 207.282 161.733 211.933 162.006 215.351C162.142 217.059 162.266 218.461 162.354 219.434C162.399 219.92 162.434 220.299 162.459 220.557C162.471 220.686 162.481 220.784 162.487 220.851C162.491 220.884 162.493 220.909 162.495 220.926C162.496 220.934 162.497 220.94 162.497 220.944V220.95L162.553 221.5H37.4453L37.5029 220.948V220.947V220.942C37.5033 220.938 37.5041 220.932 37.5049 220.924C37.5065 220.908 37.5095 220.884 37.5127 220.853C37.5192 220.789 37.5287 220.695 37.541 220.571C37.5657 220.324 37.6012 219.96 37.6455 219.493C37.7342 218.558 37.8576 217.211 37.9941 215.561C38.2672 212.26 38.5941 207.751 38.8125 202.915C38.8485 202.117 38.8808 201.311 38.9102 200.5H-0.5V68.7432L-0.133789 68.6416L0 69.124L-0.132812 68.6416C-0.132235 68.6414 -0.130939 68.6409 -0.129883 68.6406C-0.127843 68.6401 -0.124831 68.6397 -0.121094 68.6387C-0.113147 68.6365 -0.101176 68.633 -0.0859375 68.6289C-0.0551253 68.6205 -0.00929805 68.6085 0.0498047 68.5928C0.168084 68.5613 0.341381 68.516 0.5625 68.46C1.0048 68.3479 1.63957 68.1926 2.41016 68.0205C3.95008 67.6766 6.03926 67.2624 8.22949 66.9863C10.4149 66.7109 12.7257 66.5692 14.6992 66.7803C15.5947 66.8761 16.4524 67.0491 17.2061 67.332C20.8846 65.1938 25.6017 62.6193 30.3291 60.1201C35.2387 57.5246 40.1651 55.0072 43.959 53.1377C45.8553 52.2032 47.4716 51.4289 48.6631 50.8877C49.258 50.6174 49.7521 50.4027 50.124 50.2549C50.3093 50.1813 50.4709 50.1221 50.6025 50.0801C50.7119 50.0452 50.8647 50 51 50C51.1481 50 51.342 50.0309 51.543 50.0713C51.755 50.1139 52.0143 50.1753 52.3105 50.251C52.9038 50.4025 53.6661 50.6169 54.5381 50.8711C56.2794 51.3786 58.4934 52.0541 60.7041 52.708C62.9223 53.3641 65.1477 54.002 66.9404 54.4443C67.8374 54.6657 68.6172 54.8362 69.2295 54.9355C69.5358 54.9853 69.7925 55.0159 69.9961 55.0273C70.2093 55.0394 70.3285 55.0273 70.3789 55.0146C70.5497 54.9719 70.8233 54.8437 71.2021 54.6094C71.5706 54.3814 72.0023 54.0762 72.4814 53.7168C73.441 52.9971 74.5558 52.0837 75.6865 51.1729C76.81 50.2678 77.9489 49.3658 78.9355 48.6895C79.4287 48.3514 79.8962 48.0616 80.3125 47.8545C80.7135 47.655 81.1286 47.5 81.5 47.5L81.5938 47.5068C81.8061 47.5369 81.9638 47.6636 82.0557 47.752C82.174 47.8658 82.2831 48.0129 82.3828 48.1709C82.5843 48.4902 82.8021 48.9381 83.0342 49.4785C83.5007 50.5648 84.055 52.1045 84.6689 53.9346C85.8976 57.5969 87.3851 62.4827 88.9141 67.3506C90.4456 72.2264 92.0194 77.0865 93.4268 80.7256C94.1314 82.5475 94.7874 84.0445 95.3682 85.0791C95.6596 85.5983 95.9202 85.9793 96.1445 86.2236C96.3868 86.4875 96.5024 86.4998 96.5 86.5C96.4956 86.5 96.5111 86.5 96.5527 86.4883C96.593 86.4769 96.6479 86.4575 96.7178 86.4258C96.8587 86.3617 97.0386 86.2594 97.2588 86.1152C97.6989 85.827 98.2607 85.3961 98.9316 84.834C100.272 83.711 102.01 82.0995 104.02 80.1562C107.121 77.1568 110.852 73.3839 114.736 69.4316C116.299 63.3428 117.789 57.6483 119.218 52.916C120.434 48.8905 121.613 45.5295 122.764 43.1992C123.338 42.0369 123.92 41.0991 124.518 40.4619C125.108 39.8325 125.794 39.4139 126.559 39.5039C127.729 39.6416 129.076 40.2364 130.522 41.1162C131.979 42.0019 133.58 43.2043 135.265 44.6055C136.102 45.302 136.964 46.05 137.841 46.8359C138.518 46.2902 139.116 45.8501 139.616 45.541C139.875 45.3811 140.117 45.2503 140.337 45.1582C140.55 45.0691 140.778 45 141 45C141.366 45 141.788 45.1471 142.218 45.3516C142.662 45.5632 143.177 45.8677 143.746 46.2432C144.885 46.9947 146.287 48.0608 147.86 49.3291C151.009 51.8666 154.893 55.25 158.825 58.6201C161.709 61.0922 164.621 63.5577 167.298 65.6904C168.397 64.6669 169.627 63.4177 170.945 61.9941C174.682 57.9601 179.11 52.5856 183.357 47.2061C187.603 41.8284 191.663 36.4528 194.661 32.4219C196.16 30.4067 197.394 28.7278 198.253 27.5527C198.682 26.9654 199.018 26.5039 199.246 26.1895C199.36 26.0322 199.447 25.9112 199.506 25.8301C199.535 25.7896 199.557 25.7588 199.572 25.7383C199.58 25.7281 199.585 25.72 199.589 25.7148C199.59 25.7127 199.592 25.7112 199.593 25.71L199.594 25.708C199.594 25.7077 199.594 25.7076 200 26Z" stroke="#111111"/>
</g>
<defs>
<clipPath id="clip0_914_180">
<rect width="200" height="200" rx="100" fill="white"/>
</clipPath>
</defs>
</svg>
